<?xml version="1.0" standalone="no"?>
<!DOCTYPE svg PUBLIC "-//W3C//DTD SVG 20010904//EN"
 "http://www.w3.org/TR/2001/REC-SVG-20010904/DTD/svg10.dtd">
<svg version="1.0" xmlns="http://www.w3.org/2000/svg"
 width="380.000000pt" height="387.000000pt" viewBox="0 0 380.000000 387.000000"
 preserveAspectRatio="xMidYMid meet">

<g transform="translate(0.000000,387.000000) scale(0.100000,-0.100000)"
fill="#000000" stroke="none">
<path d="M1613 3823 c-3 -16 -21 -95 -38 -178 l-31 -150 -60 -12 c-58 -12 -59
-12 -83 15 -13 15 -64 73 -113 130 -66 76 -94 102 -106 97 -10 -3 -99 -51
-199 -106 l-182 -100 6 -37 c3 -20 16 -97 28 -171 13 -74 21 -139 18 -145 -2
-6 -24 -27 -48 -47 l-44 -37 -137 44 c-76 24 -148 45 -161 46 -22 3 -35 -18
-134 -204 l-111 -208 19 -24 c10 -13 55 -67 101 -121 45 -54 82 -100 82 -104
0 -3 -10 -24 -23 -46 l-22 -39 -168 -37 c-92 -20 -170 -38 -172 -40 -2 -2 -5
-111 -7 -243 l-3 -238 115 -39 c63 -21 134 -46 158 -55 l42 -16 0 -52 0 -53
-129 -96 c-71 -53 -132 -100 -135 -105 -5 -8 169 -460 183 -474 3 -4 75 10
159 32 84 22 159 40 166 40 8 0 19 -14 26 -31 13 -30 10 -38 -61 -181 l-74
-150 41 -36 c22 -21 114 -104 203 -186 l162 -149 130 129 c128 128 129 129
155 114 l26 -15 -1 -183 c-2 -181 -2 -182 21 -192 18 -7 321 -79 446 -106 21
-4 29 9 97 150 40 85 77 156 82 159 4 2 24 2 44 0 34 -5 38 -10 114 -144 48
-85 85 -139 95 -139 13 0 121 30 373 104 l57 17 0 174 0 174 29 20 29 21 64
-47 c34 -26 98 -73 140 -105 43 -32 82 -58 87 -58 8 0 212 182 320 286 l24 23
-62 158 c-85 215 -93 204 147 219 99 6 184 14 190 18 5 3 12 16 15 28 3 13 32
104 66 202 34 99 60 185 57 192 -2 6 -59 53 -125 104 -118 90 -121 93 -121
131 0 45 -8 40 185 114 66 25 121 48 123 49 4 4 -37 466 -42 482 -3 6 -82 26
-178 44 l-174 33 -16 39 -17 40 73 106 c40 59 87 127 105 152 l32 46 -111 164
c-66 99 -118 166 -129 168 -10 2 -75 -11 -145 -27 -162 -39 -175 -40 -215 -12
-24 18 -31 29 -27 45 3 11 14 77 26 146 11 69 23 137 26 151 5 25 -5 33 -185
142 l-190 116 -134 -136 c-126 -128 -135 -135 -164 -129 -34 8 -29 -2 -116
221 l-55 140 -216 3 -216 2 -7 -27z m407 -52 l0 -48 -52 -7 c-29 -3 -103 -6
-163 -6 l-110 0 -18 49 c-9 27 -17 51 -17 55 0 3 81 6 180 6 l180 0 0 -49z
m-362 -48 c9 -26 6 -60 -14 -165 -13 -73 -26 -137 -28 -143 -1 -5 -12 8 -23
30 l-21 40 31 143 c17 78 34 139 37 135 4 -5 12 -23 18 -40z m457 -122 c45
-116 47 -126 36 -163 -7 -22 -15 -38 -17 -35 -3 3 -23 72 -44 153 -61 230 -53
246 25 45z m544 28 c171 -105 191 -119 191 -127 0 -4 -18 -25 -40 -47 l-39
-38 -137 63 -136 64 6 41 c7 51 25 115 33 115 3 0 58 -32 122 -71z m-1467 -21
c3 -30 -2 -34 -142 -120 -80 -48 -148 -88 -152 -88 -4 0 -19 22 -33 49 -19 38
-22 52 -12 58 6 4 82 47 167 95 154 86 155 86 162 61 4 -13 8 -38 10 -55z
m1283 0 c-8 -28 -24 -65 -37 -83 -84 -116 -114 -154 -119 -155 -4 0 -12 21
-18 47 l-12 46 59 61 c33 34 74 78 92 99 18 20 37 37 41 37 4 0 1 -23 -6 -52z
m-1165 -54 c54 -63 85 -109 91 -132 4 -20 6 -38 4 -40 -4 -4 -48 44 -124 135
-33 39 -54 75 -58 98 -3 19 -3 35 0 35 3 0 42 -43 87 -96z m260 -135 c12 -23
19 -43 17 -46 -7 -6 -138 -36 -141 -31 -2 1 -6 24 -8 50 -5 47 -5 47 31 56 68
18 79 15 101 -29z m699 -6 c20 -71 18 -74 -46 -67 -32 4 -60 8 -62 10 -2 2 4
24 13 49 16 41 21 45 51 45 31 0 35 -4 44 -37z m587 20 c-3 -10 -15 -72 -26
-138 -20 -115 -22 -121 -58 -152 -20 -17 -38 -30 -40 -28 -2 2 8 63 23 137 24
117 31 137 58 166 34 35 51 41 43 15z m-1941 -174 c25 -63 45 -118 45 -122 0
-8 -23 3 -53 25 -12 9 -22 41 -32 103 -25 152 -22 151 40 -6z m1195 -38 c465
-106 828 -488 937 -983 25 -118 25 -409 -1 -528 -90 -414 -365 -754 -737 -913
-587 -251 -1256 5 -1553 593 -100 196 -131 340 -131 595 1 165 4 202 24 285
42 170 110 323 203 458 96 138 313 337 343 312 11 -9 14 -7 17 12 6 47 256
152 438 184 105 19 349 11 460 -15z m1223 -215 c95 -143 96 -144 74 -159 -12
-7 -34 -21 -48 -30 l-26 -17 -107 141 c-59 78 -105 143 -104 144 11 10 103 65
108 65 4 0 50 -65 103 -144z m-2407 104 c24 -17 44 -36 44 -41 0 -13 -97 -116
-102 -109 -2 3 -21 27 -42 53 l-38 48 44 39 c23 22 44 39 46 40 2 0 23 -14 48
-30z m1925 13 c16 -10 29 -21 29 -26 0 -15 -45 -87 -54 -87 -10 0 -86 50 -86
56 0 4 74 73 78 74 2 0 17 -8 33 -17z m269 3 c-18 -18 -230 -109 -237 -102
-13 13 41 66 75 75 181 45 180 45 162 27z m-2653 -227 l-91 -129 -53 0 c-30 0
-53 5 -53 10 0 10 68 144 147 289 l35 63 53 -52 53 -52 -91 -129z m177 187
c96 -29 113 -38 139 -70 16 -20 28 -39 25 -41 -2 -3 -53 13 -113 35 -80 29
-118 48 -144 74 -20 20 -31 36 -26 36 6 0 59 -15 119 -34z m2665 -407 c-39
-57 -72 -105 -74 -107 -1 -2 -20 -6 -41 -9 l-39 -6 44 51 c66 79 171 186 177
180 2 -3 -27 -52 -67 -109z m-2934 53 c17 -12 175 -190 175 -196 0 -3 -22 -6
-48 -6 -49 0 -49 1 -115 78 -36 42 -75 87 -86 99 -12 12 -21 25 -21 28 0 8 84
6 95 -3z m2876 -233 c12 -31 12 -33 -26 -66 -21 -18 -42 -33 -46 -33 -4 0 -16
27 -27 60 l-20 59 36 7 c20 3 42 7 47 8 15 5 21 -1 36 -35z m-2685 -14 c-3 -9
-13 -40 -22 -70 -8 -30 -17 -55 -20 -55 -5 0 -106 50 -113 56 -1 1 7 21 20 43
23 41 23 41 82 41 49 0 58 -3 53 -15z m2867 -71 c53 -9 97 -21 97 -26 0 -4
-71 -8 -157 -8 l-158 1 35 30 c25 22 42 29 60 25 14 -2 69 -12 123 -22z
m-3004 -43 l34 -18 -32 -6 c-56 -12 -286 -20 -278 -11 9 10 179 51 217 52 14
1 40 -7 59 -17z m3192 -23 c0 -13 8 -106 18 -208 10 -102 17 -187 15 -189 -1
-2 -30 0 -63 4 l-59 7 -6 91 c-3 51 -8 138 -10 194 l-5 102 42 9 c63 15 67 14
68 -10z m-3428 -58 c10 -9 -20 -331 -31 -341 -13 -11 -103 -41 -108 -36 -3 3
-2 94 2 202 l7 197 61 -7 c34 -3 65 -10 69 -15z m3391 -369 c14 -5 -11 -19
-100 -53 -117 -45 -119 -45 -162 -30 -24 8 -40 18 -35 22 4 4 51 22 103 38 94
30 157 38 194 23z m-3262 -47 c70 -21 128 -42 128 -46 0 -3 -20 -14 -45 -23
l-44 -17 -128 42 c-70 24 -132 47 -136 51 -9 7 71 39 88 35 6 -2 67 -20 137
-42z m2996 -70 c30 -12 33 -17 30 -51 -3 -35 -6 -38 -51 -51 -27 -8 -50 -12
-51 -10 -2 2 -6 33 -9 71 l-6 67 27 -6 c15 -4 42 -13 60 -20z m-2820 -77 l3
-67 -59 0 c-45 0 -61 4 -66 16 -10 27 -7 72 6 81 24 15 93 42 103 39 6 -1 11
-33 13 -69z m2953 -109 c107 -82 83 -88 -65 -15 -104 51 -109 55 -86 65 47 20
69 12 151 -50z m-2991 8 c0 -2 -44 -33 -97 -69 -64 -44 -115 -70 -147 -77 -27
-6 -50 -9 -53 -7 -2 3 42 39 98 81 95 70 106 76 151 76 26 0 48 -2 48 -4z
m3127 -129 c6 -6 -105 -347 -117 -360 -7 -8 -104 35 -113 50 -5 7 94 310 107
332 6 9 111 -10 123 -22z m-3269 -211 c28 -90 54 -170 57 -178 4 -9 -11 -28
-41 -51 -26 -20 -51 -37 -55 -37 -7 0 -169 402 -164 408 4 5 90 20 120 21 l31
1 52 -164z m2917 -111 c64 -6 165 -39 165 -55 0 -4 -61 -10 -136 -14 -150 -7
-152 -7 -188 55 l-19 32 54 -6 c30 -4 86 -9 124 -12z m-172 -50 c23 -36 26
-48 17 -65 -6 -11 -14 -20 -19 -20 -12 0 -81 29 -81 34 0 14 41 96 47 96 4 -1
21 -21 36 -45z m-2329 -15 c14 -22 26 -41 26 -44 0 -5 -97 -56 -108 -56 -4 0
-13 14 -20 32 -11 31 -10 34 25 70 20 21 40 38 44 38 3 0 18 -18 33 -40z
m-129 2 c-23 -22 -56 -36 -134 -56 -57 -14 -106 -24 -108 -22 -10 10 57 43
146 72 122 40 133 41 96 6z m2501 -226 c24 -60 42 -112 39 -114 -11 -11 -38
27 -86 121 -28 56 -55 107 -60 113 -16 20 4 24 34 6 23 -13 38 -40 73 -126z
m-2366 120 c0 -3 -23 -47 -51 -99 -39 -72 -61 -102 -95 -126 -25 -17 -47 -31
-49 -31 -3 0 20 49 50 110 46 92 61 113 92 129 38 20 53 25 53 17z m43 -354
l128 -128 -19 -78 -19 -79 -172 158 c-94 87 -170 162 -169 166 3 9 109 88 118
89 3 0 63 -58 133 -128z m2350 81 l40 -28 -84 -78 c-46 -42 -114 -105 -151
-138 l-67 -60 -31 61 c-30 59 -30 63 -13 75 10 7 71 54 137 104 65 50 121 91
124 91 3 0 24 -12 45 -27z m-1898 -45 c38 -25 38 -34 2 -78 -40 -52 -73 -29
-62 42 11 67 11 67 60 36z m1309 -69 c-24 -27 -41 -24 -59 12 -9 17 -15 32
-13 34 2 1 21 12 43 23 l40 20 3 -35 c2 -23 -3 -42 -14 -54z m150 -2 c75 -68
125 -131 114 -142 -2 -2 -51 32 -110 76 -102 75 -108 81 -108 115 0 20 4 34 9
32 5 -1 48 -38 95 -81z m-1547 56 c-3 -10 -8 -30 -11 -45 -7 -31 -210 -227
-213 -206 -2 7 3 35 10 61 11 43 22 56 107 127 52 43 99 79 103 79 5 1 6 -7 4
-16z m113 -367 l-30 -51 0 35 c-1 19 -1 86 0 149 1 100 4 117 23 143 l22 30 8
-127 7 -128 -30 -51z m1230 134 c0 -99 -3 -122 -12 -112 -9 9 -14 56 -16 145
-3 120 -2 130 12 112 12 -15 15 -48 16 -145z m-586 78 c7 -28 8 -103 1 -110
-3 -2 -18 -3 -35 0 -28 4 -30 7 -30 46 0 64 9 86 35 86 15 0 25 -8 29 -22z
m-156 -243 l-63 -130 -3 66 c-3 66 -2 68 60 170 l63 104 3 -40 c2 -33 -9 -65
-60 -170z m310 -63 c-3 -23 -12 -10 -60 76 -46 81 -58 111 -57 145 0 41 1 40
60 -76 39 -77 59 -128 57 -145z m411 36 c1 -13 -17 -22 -66 -37 -38 -11 -121
-35 -185 -54 l-117 -35 -7 55 c-3 30 -3 58 2 63 5 4 83 30 174 57 l165 50 17
-41 c9 -23 17 -49 17 -58z m-993 48 c86 -19 161 -41 165 -48 9 -14 13 -148 4
-148 -10 0 -400 93 -404 96 -4 3 68 134 74 134 2 0 74 -15 161 -34z"/>
<path d="M1728 3193 c-8 -16 4 -153 13 -153 5 0 9 13 9 28 0 22 7 30 30 39 24
9 30 17 30 40 0 16 -5 34 -12 41 -13 13 -65 16 -70 5z m62 -44 c0 -12 -7 -19
-20 -19 -19 0 -28 28 -14 43 11 11 34 -5 34 -24z"/>
<path d="M1847 3128 c-3 -40 -5 -73 -4 -75 2 -1 22 -5 45 -9 35 -5 42 -4 42
10 0 11 -9 16 -30 16 -25 0 -30 4 -30 24 0 20 5 24 24 23 33 -3 34 17 1 21
-17 2 -25 9 -25 23 0 15 7 19 36 19 21 0 33 4 29 10 -3 6 -23 10 -44 10 l-38
0 -6 -72z"/>
<path d="M1664 3163 c18 -93 18 -103 1 -109 -24 -10 -35 6 -42 65 -5 46 -17
70 -29 59 -7 -7 17 -122 28 -135 14 -18 53 -16 68 2 12 14 8 77 -6 128 -9 28
-26 19 -20 -10z"/>
<path d="M1966 3138 c-4 -29 -10 -63 -13 -75 -3 -14 -1 -23 6 -23 6 0 14 14
18 30 7 38 23 34 38 -10 6 -19 17 -36 23 -38 15 -5 15 10 0 42 -9 21 -8 29 5
44 36 39 11 82 -46 82 -22 0 -25 -5 -31 -52z m71 -1 c-2 -7 -13 -13 -25 -15
-16 -3 -22 2 -22 16 0 10 3 22 6 25 10 10 46 -13 41 -26z"/>
<path d="M2086 3101 c-18 -80 -19 -91 -8 -91 5 0 16 33 25 73 20 83 20 87 8
87 -5 0 -17 -31 -25 -69z"/>
<path d="M1490 3144 c-23 -27 -1 -68 38 -72 24 -2 32 -8 32 -22 0 -25 -17 -35
-36 -19 -21 17 -31 2 -12 -18 11 -10 25 -13 41 -9 52 13 36 89 -21 94 -18 2
-32 9 -32 17 0 18 25 26 39 12 16 -16 26 0 11 18 -16 19 -44 19 -60 -1z"/>
<path d="M2165 3128 c-51 -45 -49 -129 4 -136 30 -5 58 22 71 66 10 39 1 65
-30 82 -15 8 -24 5 -45 -12z m53 -44 c4 -38 -27 -80 -51 -71 -36 14 -6 112 31
105 11 -2 18 -15 20 -34z"/>
<path d="M1370 3100 c0 -6 7 -27 15 -47 21 -51 20 -51 -24 -9 -54 53 -66 40
-34 -37 29 -67 39 -84 49 -75 3 3 -2 20 -10 37 -25 48 -19 57 17 23 32 -31 57
-41 57 -23 0 5 -13 39 -30 75 -27 62 -40 79 -40 56z"/>
<path d="M2266 3041 c-14 -32 -26 -64 -26 -70 0 -21 18 -11 24 15 9 35 30 25
34 -17 5 -52 22 -60 22 -11 0 30 4 42 15 42 16 0 35 30 35 54 0 14 -47 46 -68
46 -5 0 -21 -26 -36 -59z m71 18 c13 -13 6 -39 -11 -39 -22 0 -37 17 -30 33 7
20 25 22 41 6z"/>
<path d="M1206 3011 c-23 -25 -15 -69 19 -105 27 -30 56 -33 79 -10 22 22 20
55 -7 95 -27 41 -65 49 -91 20z m53 -11 c10 -5 24 -23 31 -40 11 -26 11 -34
-2 -46 -20 -21 -44 -9 -63 32 -13 28 -14 38 -5 50 15 17 16 17 39 4z"/>
<path d="M2447 3014 c-3 -3 -1 -14 5 -24 9 -14 5 -27 -21 -64 -17 -26 -28 -52
-25 -58 3 -5 23 15 43 45 30 46 39 54 54 46 30 -17 20 15 -13 39 -32 24 -34
25 -43 16z"/>
<path d="M1674 2994 c-160 -27 -315 -97 -448 -204 -232 -187 -368 -460 -382
-770 -5 -110 -3 -140 20 -250 29 -145 58 -222 121 -330 135 -230 357 -400 610
-466 84 -22 122 -26 235 -27 151 0 237 15 357 63 490 197 749 744 598 1265
-113 387 -438 672 -828 724 -100 14 -181 12 -283 -5z m338 -78 c467 -90 794
-542 747 -1035 -15 -162 -65 -303 -157 -446 -50 -78 -172 -204 -244 -253 -458
-311 -1059 -156 -1323 341 -116 218 -141 485 -69 734 71 246 251 465 474 578
170 86 386 117 572 81z"/>
<path d="M1759 2693 c-18 -101 -37 -108 -100 -34 -23 28 -46 51 -50 51 -7 0
-173 -103 -188 -116 -2 -2 8 -32 22 -66 24 -55 25 -64 13 -77 -13 -13 -22 -10
-75 22 -32 20 -64 37 -69 37 -11 0 -142 -172 -142 -186 0 -5 25 -37 55 -71 72
-80 68 -93 -31 -93 -51 0 -76 -4 -79 -12 -2 -7 -8 -57 -12 -111 l-9 -98 78
-49 78 -50 1 -87 c3 -206 14 -378 25 -376 5 1 67 7 136 14 143 14 260 3 352
-32 66 -25 110 -25 127 1 22 32 133 42 355 34 l192 -7 7 241 7 240 87 28 86
29 3 122 3 121 -83 -1 c-102 -2 -108 9 -49 88 23 30 44 61 47 68 3 8 -25 51
-61 95 l-67 81 -49 -24 c-26 -14 -55 -25 -64 -25 -17 0 -16 9 12 108 9 32 11
58 6 63 -5 5 -45 31 -89 59 l-79 49 -28 -32 c-16 -18 -36 -45 -45 -60 -12 -20
-23 -27 -41 -25 -22 3 -27 12 -44 75 -22 81 -18 79 -145 82 l-78 2 -15 -78z
m225 -18 c11 -38 25 -73 30 -77 29 -20 54 -6 96 52 40 56 45 59 64 47 12 -8
47 -29 79 -48 31 -18 57 -39 57 -46 0 -7 -9 -45 -20 -84 -11 -40 -17 -76 -14
-80 10 -16 45 -9 90 17 25 15 46 25 48 23 2 -2 28 -34 60 -71 31 -37 56 -72
56 -77 0 -5 -21 -37 -46 -70 -36 -48 -45 -67 -40 -86 6 -24 10 -25 86 -25 l80
0 0 -108 0 -109 -72 -21 c-39 -11 -76 -18 -80 -16 -19 12 16 34 52 34 68 0 70
2 70 101 l0 88 -77 3 -77 3 -15 47 c-14 46 -14 47 15 84 71 89 69 74 16 137
l-47 56 -52 -29 c-29 -17 -54 -30 -57 -30 -2 0 -16 16 -30 35 l-27 35 21 40
c11 22 18 45 15 50 -3 4 -35 25 -72 46 l-66 37 -41 -48 c-32 -37 -47 -46 -66
-44 -21 3 -28 14 -46 68 -23 74 -39 84 -119 79 l-50 -3 -16 -60 c-15 -60 -16
-60 -55 -63 -35 -3 -44 2 -83 42 l-44 45 -58 -40 c-32 -21 -60 -43 -64 -49 -3
-5 1 -22 8 -37 32 -62 31 -69 -17 -108 l-45 -37 -45 25 -45 25 -37 -50 c-39
-55 -39 -63 7 -120 l22 -27 -23 -55 -22 -55 -51 -3 -52 -3 -9 -74 -9 -74 41
-34 c38 -32 55 -63 34 -63 -5 0 -37 18 -71 40 l-61 40 5 57 c3 32 8 77 11 101
l5 43 71 -7 c55 -5 72 -4 79 7 17 28 8 52 -41 109 -27 32 -50 61 -50 65 0 12
114 164 124 165 4 0 35 -16 67 -35 56 -35 59 -35 84 -19 14 9 25 18 25 20 0 2
-11 29 -25 60 -14 31 -25 60 -25 64 0 4 36 31 81 60 l80 53 50 -49 c39 -39 55
-48 77 -45 34 4 39 11 47 80 4 31 9 60 12 64 2 4 43 6 91 5 l86 -3 20 -70z m1
-180 c158 -41 267 -143 365 -337 33 -67 60 -126 60 -131 0 -5 -8 -6 -17 -2
-27 11 -260 54 -333 61 -36 4 -71 12 -79 18 -8 6 -24 9 -37 8 -22 -3 -23 -1
-18 55 4 41 3 54 -5 43 -9 -13 -10 -13 -14 0 -3 8 -13 38 -23 65 -18 49 -19
50 -24 19 -5 -31 -49 -99 -50 -76 0 6 -4 12 -10 12 -6 0 -10 -27 -10 -60 0
-57 -1 -60 -25 -60 -14 0 -25 6 -25 13 0 6 -8 0 -18 -15 -16 -26 -21 -28 -86
-28 -63 0 -299 -34 -318 -46 -36 -23 49 165 115 251 76 100 185 170 321 205
88 23 154 25 231 5z m-235 -409 c0 -3 -4 -8 -10 -11 -5 -3 -10 -1 -10 4 0 6 5
11 10 11 6 0 10 -2 10 -4z m219 -19 c0 -8 -2 -8 -6 1 -3 7 -10 9 -16 5 -7 -5
-34 -5 -62 -2 l-50 7 52 -1 c29 0 56 2 59 6 9 9 24 -1 23 -16z m-161 6 c-10
-2 -26 -2 -35 0 -10 3 -2 5 17 5 19 0 27 -2 18 -5z m-106 -15 c8 -7 18 -22 20
-34 5 -19 1 -21 -51 -21 -31 -1 -76 -6 -101 -13 -25 -7 -74 -15 -110 -19 -56
-6 -61 -9 -37 -16 19 -5 62 0 131 15 67 15 115 21 138 16 36 -7 37 -8 44 -64
4 -31 7 -59 8 -62 1 -2 -24 -5 -54 -6 -30 0 -86 -8 -123 -18 -38 -10 -84 -16
-102 -14 -44 3 -55 -8 -15 -16 18 -3 70 3 121 14 94 21 146 25 166 12 11 -7
63 -329 63 -388 0 -20 0 -20 -72 4 -84 28 -230 33 -331 12 -32 -6 -61 -9 -65
-5 -3 3 -8 131 -10 284 l-4 278 113 21 c186 35 247 39 271 20z m423 2 c39 -6
110 -18 159 -27 l89 -16 -8 -286 c-4 -157 -8 -287 -8 -287 -1 -1 -38 5 -82 13
-93 16 -248 21 -321 10 l-50 -7 5 42 c6 43 6 43 52 46 31 2 70 -6 128 -28 81
-29 161 -40 161 -20 0 6 -19 10 -42 10 -24 0 -81 14 -128 30 -47 16 -102 30
-122 30 -31 0 -38 4 -38 19 0 61 34 65 165 21 83 -28 183 -41 171 -21 -3 4
-16 6 -28 4 -13 -2 -74 12 -137 32 -63 19 -124 34 -135 33 -16 -2 -21 2 -21
22 0 22 5 25 44 28 29 2 72 -7 132 -27 88 -31 169 -40 169 -21 0 6 -20 10 -44
10 -24 0 -84 14 -134 30 -50 17 -108 30 -128 30 -33 0 -36 2 -30 23 3 12 6 28
6 35 0 20 55 14 142 -18 48 -18 101 -30 130 -30 62 0 63 15 0 16 -26 1 -79 13
-118 27 -39 14 -88 27 -110 29 -22 2 -39 9 -38 16 1 7 2 19 3 27 2 24 66 18
161 -15 87 -30 144 -38 155 -20 4 6 -11 10 -37 10 -24 0 -82 13 -128 30 -47
16 -100 30 -119 30 -26 0 -32 3 -27 16 3 9 6 20 6 25 0 18 67 9 150 -21 85
-29 160 -39 160 -20 0 6 -19 10 -42 10 -24 0 -81 14 -128 30 -47 16 -98 30
-114 30 -26 0 -28 2 -21 27 4 16 9 30 11 32 3 3 37 -5 77 -18 135 -42 190 -53
211 -42 18 8 14 10 -22 10 -23 1 -81 15 -129 31 -47 17 -99 30 -115 30 -30 0
-35 9 -16 28 14 14 41 15 133 2z m-175 -70 c0 -11 -4 -20 -9 -20 -5 0 -7 9 -4
20 3 11 7 20 9 20 2 0 4 -9 4 -20z m-641 -324 l1 -238 28 6 c100 21 228 29
301 19 93 -14 171 -48 171 -76 0 -14 -4 -17 -17 -12 -10 5 -49 17 -88 27 -60
17 -92 19 -225 14 -85 -2 -165 -8 -176 -11 -21 -7 -22 -3 -28 87 -3 51 -8 182
-11 291 -6 184 -5 200 12 212 17 12 19 10 25 -33 3 -26 7 -154 7 -286z m1114
320 c17 -13 18 -29 11 -253 -4 -131 -10 -257 -13 -281 l-6 -43 -240 -2 c-132
-1 -248 -6 -257 -11 -15 -7 -18 -3 -18 17 0 34 17 39 140 44 74 3 138 -1 218
-15 62 -10 115 -15 117 -12 3 4 5 134 5 289 1 293 2 298 43 267z m-489 -76
c-6 -6 -10 -3 -10 10 0 13 4 16 10 10 7 -7 7 -13 0 -20z m-27 -222 c-3 -8 -6
-5 -6 6 -1 11 2 17 5 13 3 -3 4 -12 1 -19z m-10 -80 c-3 -8 -6 -5 -6 6 -1 11
2 17 5 13 3 -3 4 -12 1 -19z m-70 -70 c-3 -8 -6 -5 -6 6 -1 11 2 17 5 13 3 -3
4 -12 1 -19z m47 -74 c3 -8 2 -12 -4 -9 -6 3 -10 10 -10 16 0 14 7 11 14 -7z
m-31 -29 c-3 -9 -8 -14 -10 -11 -3 3 -2 9 2 15 9 16 15 13 8 -4z m5 -60 c-3
-3 -9 2 -12 12 -6 14 -5 15 5 6 7 -7 10 -15 7 -18z"/>
<path d="M1870 2400 c0 -5 4 -10 10 -10 5 0 16 -12 24 -27 8 -16 15 -24 16
-20 0 5 -8 22 -17 38 -17 29 -33 38 -33 19z"/>
<path d="M1760 2348 c0 -7 5 -20 10 -28 8 -12 10 -11 10 7 0 12 -4 25 -10 28
-5 3 -10 0 -10 -7z"/>
<path d="M1860 2350 c0 -5 5 -10 10 -10 6 0 10 5 10 10 0 6 -4 10 -10 10 -5 0
-10 -4 -10 -10z"/>
<path d="M1921 2304 c0 -11 3 -14 6 -6 3 7 2 16 -1 19 -3 4 -6 -2 -5 -13z"/>
<path d="M1950 2278 c0 -9 -5 -18 -12 -20 -9 -3 -9 -6 0 -12 7 -4 12 -2 12 4
0 6 5 8 10 5 13 -8 13 5 0 25 -8 13 -10 13 -10 -2z"/>
<path d="M1727 2263 c-10 -10 -8 -25 2 -19 5 4 12 0 14 -6 3 -7 6 -3 6 10 1
22 -9 29 -22 15z"/>
<path d="M1971 2174 c0 -11 3 -14 6 -6 3 7 2 16 -1 19 -3 4 -6 -2 -5 -13z"/>
<path d="M1721 2164 c0 -11 3 -14 6 -6 3 7 2 16 -1 19 -3 4 -6 -2 -5 -13z"/>
<path d="M1535 1904 c-27 -7 -74 -14 -103 -14 -36 0 -51 -3 -46 -11 8 -14 79
-8 182 15 44 10 88 14 109 10 26 -5 34 -4 29 5 -10 15 -109 13 -171 -5z"/>
<path d="M1570 1759 c-47 -11 -102 -18 -122 -15 -21 2 -38 0 -38 -5 0 -20 55
-20 151 1 58 13 118 20 140 17 46 -6 53 8 8 17 -40 8 -38 8 -139 -15z"/>
<path d="M1550 1675 c-30 -8 -77 -15 -105 -15 -45 -1 -48 -3 -26 -13 18 -9 47
-6 136 12 72 15 124 21 145 16 23 -5 30 -4 26 4 -10 15 -108 12 -176 -4z"/>
<path d="M1600 1613 c-36 -9 -91 -16 -122 -17 -32 -1 -58 -4 -58 -7 0 -17 64
-16 145 3 52 11 110 18 138 15 49 -4 64 6 25 17 -33 8 -55 6 -128 -11z"/>
<path d="M1565 1520 c-44 -10 -100 -19 -125 -20 -40 -1 -43 -3 -22 -12 17 -9
46 -6 129 11 70 15 120 21 147 17 27 -5 38 -4 31 3 -20 19 -82 20 -160 1z"/>
<path d="M1422 1248 c3 -59 19 -83 26 -38 2 11 11 20 21 20 25 0 43 24 39 52
-2 19 -10 23 -46 26 l-43 3 3 -63z m58 27 c0 -8 -7 -15 -15 -15 -16 0 -20 12
-8 23 11 12 23 8 23 -8z"/>
<path d="M1530 1262 c0 -36 5 -54 20 -67 30 -27 72 -10 81 32 8 43 0 83 -17
83 -10 0 -14 -14 -14 -51 0 -43 -3 -50 -17 -47 -14 2 -19 15 -21 51 -2 33 -7
47 -18 47 -10 0 -14 -13 -14 -48z"/>
<path d="M1672 1298 c-7 -7 -12 -29 -12 -49 0 -63 48 -90 85 -49 22 25 12 39
-16 22 -26 -17 -39 -7 -39 28 0 30 21 45 38 28 16 -16 36 0 21 18 -14 17 -61
18 -77 2z"/>
<path d="M1807 1303 c-13 -23 -38 -115 -33 -120 3 -4 14 1 24 10 10 10 22 17
27 17 5 0 17 -7 27 -17 28 -25 31 -11 11 56 -13 43 -23 61 -35 61 -9 0 -19 -3
-21 -7z m33 -65 c0 -5 -4 -8 -10 -8 -5 0 -10 10 -10 23 0 18 2 19 10 7 5 -8
10 -18 10 -22z"/>
<path d="M1902 1248 l3 -63 34 0 c19 0 36 6 39 13 2 7 -6 12 -22 12 -24 0 -26
3 -26 50 0 38 -4 50 -15 50 -13 0 -15 -11 -13 -62z"/>
<path d="M2002 1248 l3 -61 38 -2 c41 -3 54 21 15 27 -20 3 -23 10 -26 51 -2
34 -7 47 -18 47 -12 0 -14 -12 -12 -62z"/>
<path d="M2102 1248 c3 -59 19 -83 26 -38 2 11 11 20 21 20 25 0 43 24 39 52
-2 19 -10 23 -46 26 l-43 3 3 -63z m58 21 c0 -5 -7 -9 -15 -9 -15 0 -20 12 -9
23 8 8 24 -1 24 -14z"/>
<path d="M2225 1298 c-28 -76 -34 -103 -27 -110 5 -5 14 -2 22 7 16 19 29 19
52 -2 29 -26 32 -8 11 54 -18 56 -47 81 -58 51z m35 -60 c0 -5 -4 -8 -10 -8
-5 0 -10 10 -10 23 0 18 2 19 10 7 5 -8 10 -18 10 -22z"/>
<path d="M1130 2958 c1 -21 88 -130 95 -119 5 10 -79 131 -91 131 -2 0 -4 -6
-4 -12z"/>
<path d="M2504 2889 l-47 -61 29 -24 c41 -33 64 -31 32 4 -23 23 -25 30 -14
44 12 16 15 16 35 2 28 -20 40 -10 18 14 -33 36 -12 58 24 26 10 -9 23 -13 29
-9 13 8 6 19 -30 45 l-29 20 -47 -61z"/>
<path d="M1062 2908 c-30 -30 7 -118 57 -131 28 -7 63 20 59 46 -4 29 -29 35
-26 5 4 -35 -34 -36 -61 -2 -30 38 -28 64 5 64 16 0 24 5 22 13 -6 17 -41 20
-56 5z"/>
<path d="M2609 2827 c-39 -26 -59 -78 -39 -102 14 -17 63 -17 58 0 -2 5 -9 8
-17 7 -13 -3 -30 14 -31 29 0 15 51 59 70 59 15 0 20 -6 20 -26 0 -29 23 -29
28 0 4 19 -24 56 -43 56 -7 0 -27 -10 -46 -23z"/>
<path d="M956 2802 c-5 -9 76 -142 88 -142 4 0 5 12 2 26 -9 34 9 56 40 48 47
-12 23 13 -44 44 -73 34 -78 36 -86 24z m73 -41 c7 -5 10 -14 7 -20 -10 -16
-20 -14 -34 9 -10 16 -10 20 0 20 7 0 19 -4 27 -9z"/>
<path d="M2710 2737 c-14 -12 -38 -32 -54 -45 -38 -29 -25 -42 14 -14 41 30
43 28 20 -18 -37 -73 -25 -78 49 -19 56 45 72 77 17 35 -19 -14 -37 -26 -41
-26 -3 0 6 22 19 49 33 63 22 79 -24 38z"/>
<path d="M882 2708 c-21 -21 -13 -59 19 -89 34 -32 79 -38 99 -15 14 18 10 58
-8 64 -9 3 -11 -3 -6 -22 4 -19 2 -28 -11 -32 -36 -14 -100 45 -75 70 6 6 15
11 21 11 5 0 10 5 12 10 3 15 -36 18 -51 3z"/>
<path d="M2753 2610 c-40 -24 -52 -63 -28 -90 23 -25 51 -25 92 0 37 22 50 58
33 89 -14 27 -54 27 -97 1z m76 -14 c16 -19 4 -44 -30 -61 -34 -18 -59 -10
-59 20 0 40 65 70 89 41z"/>
<path d="M820 2611 c0 -5 23 -23 50 -40 48 -29 62 -53 40 -66 -6 -4 -35 8 -65
25 -36 21 -55 27 -55 18 0 -16 90 -68 117 -68 12 0 25 11 32 26 14 32 1 50
-65 89 -47 27 -54 30 -54 16z"/>
<path d="M2831 2489 c-36 -16 -66 -31 -68 -33 -2 -1 4 -20 13 -41 10 -26 19
-34 26 -27 7 7 6 16 -1 30 -6 11 -11 23 -11 25 0 3 25 15 55 28 30 12 55 29
55 36 0 16 7 18 -69 -18z"/>
<path d="M751 2467 c-6 -8 -12 -24 -13 -37 -3 -19 7 -27 62 -51 l65 -28 13 30
c7 17 10 38 7 48 -12 40 -109 67 -134 38z m87 -23 c21 -14 29 -44 16 -56 -8
-9 -89 29 -88 42 3 27 5 30 27 30 12 0 33 -7 45 -16z"/>
<path d="M2861 2382 c-46 -23 -58 -44 -43 -76 9 -21 19 -26 47 -26 45 0 95 25
96 48 2 32 -2 47 -19 60 -22 16 -41 15 -81 -6z m76 -29 c14 -36 -70 -70 -96
-39 -10 12 -8 19 8 35 26 26 79 28 88 4z"/>
<path d="M2976 2371 c-3 -5 1 -11 9 -15 8 -3 15 -1 15 4 0 13 -18 22 -24 11z"/>
<path d="M701 2333 c-6 -21 -7 -40 -3 -44 8 -7 114 -39 130 -39 5 0 14 18 20
40 8 31 7 40 -3 40 -7 0 -16 -11 -19 -25 -4 -17 -13 -25 -27 -25 -19 0 -20 4
-15 35 7 35 -9 52 -19 20 -3 -8 -7 -22 -10 -30 -2 -9 -11 -12 -20 -9 -12 5
-14 15 -9 40 9 47 -12 44 -25 -3z"/>
<path d="M2878 2244 c-22 -11 -28 -22 -28 -48 0 -41 21 -60 55 -52 18 5 25 13
25 31 0 30 -16 33 -23 5 -7 -26 -24 -26 -32 1 -8 25 9 45 46 54 36 9 63 -18
48 -47 -13 -25 -5 -35 16 -18 22 18 18 56 -7 74 -28 20 -65 20 -100 0z"/>
<path d="M664 2176 c-3 -8 -4 -27 -2 -43 3 -27 6 -28 71 -37 37 -5 69 -7 71
-5 2 2 6 20 8 39 4 43 -15 56 -22 15 -5 -27 -10 -31 -40 -26 -5 0 -7 14 -3 31
4 23 2 30 -11 30 -11 0 -16 -9 -16 -31 0 -24 -4 -30 -17 -27 -14 3 -17 12 -15
36 3 32 -14 45 -24 18z"/>
<path d="M2893 2113 c-37 -5 -45 -23 -10 -23 49 0 127 13 127 21 0 9 -55 10
-117 2z"/>
<path d="M2892 2054 c-27 -19 -27 -61 0 -78 24 -15 36 1 13 18 -10 7 -16 20
-12 29 8 20 61 31 86 17 21 -11 29 -40 11 -40 -5 0 -10 -7 -10 -15 0 -8 4 -15
8 -15 15 0 32 24 32 46 0 47 -81 71 -128 38z"/>
<path d="M662 2048 c-7 -7 -12 -27 -12 -45 0 -30 3 -33 29 -33 15 0 49 -3 75
-6 l46 -7 0 41 c0 31 -5 44 -19 52 -27 14 -104 13 -119 -2z m102 -14 c9 -3 16
-15 16 -25 0 -16 -8 -19 -55 -19 -38 0 -55 4 -55 13 0 31 51 48 94 31z"/>
<path d="M2903 1929 c-70 -26 -36 -109 44 -109 59 0 96 58 58 90 -21 18 -78
28 -102 19z m81 -34 c33 -33 -21 -69 -70 -46 -23 10 -32 40 -17 54 12 13 72 7
87 -8z"/>
<path d="M693 1875 c-31 -13 -38 -28 -33 -65 8 -65 150 -42 150 25 0 44 -62
65 -117 40z m87 -30 c25 -30 -40 -67 -80 -45 -39 21 -16 60 36 60 17 0 37 -7
44 -15z"/>
<path d="M2850 1750 c0 -5 12 -13 26 -16 21 -5 25 -11 21 -31 -5 -29 16 -53
47 -53 28 0 43 16 48 49 3 22 -3 26 -62 42 -77 22 -80 22 -80 9z m116 -57 c-3
-8 -6 -17 -6 -19 0 -9 -29 -3 -35 6 -12 20 3 39 25 33 13 -4 19 -11 16 -20z"/>
<path d="M676 1703 c4 -21 9 -41 11 -45 8 -15 23 -8 23 11 0 16 11 22 60 32
69 13 84 35 18 25 -24 -4 -53 -9 -65 -13 -17 -4 -23 -1 -23 11 0 9 -7 16 -15
16 -13 0 -15 -7 -9 -37z"/>
<path d="M765 1634 c-22 -8 -46 -16 -53 -19 -7 -3 -11 -9 -7 -14 3 -6 28 -2
60 9 45 16 56 16 65 5 17 -20 7 -30 -47 -50 -60 -22 -75 -35 -42 -35 14 0 45
10 69 23 47 23 62 55 40 83 -15 17 -33 17 -85 -2z"/>
<path d="M2824 1633 c-19 -13 -25 -48 -12 -65 13 -17 118 -61 126 -53 10 10
-12 25 -58 40 -36 12 -50 22 -50 35 0 27 19 29 75 9 59 -22 55 -22 55 -9 0 21
-115 57 -136 43z"/>
<path d="M2765 1501 c-8 -17 -12 -37 -9 -46 8 -19 41 -38 53 -31 5 3 14 -1 21
-9 22 -27 55 -18 73 19 l16 35 -61 30 c-34 17 -65 31 -69 31 -5 0 -15 -13 -24
-29z m59 -10 c10 -16 -5 -41 -25 -41 -19 0 -27 29 -12 43 9 10 31 9 37 -2z
m56 -40 c0 -11 -5 -23 -11 -27 -15 -9 -33 12 -26 30 9 23 37 20 37 -3z"/>
<path d="M832 1492 c-45 -22 -54 -24 -62 -12 -18 30 -22 -1 -5 -40 20 -44 38
-53 33 -18 -2 18 7 28 50 51 28 16 52 32 52 38 0 13 -9 11 -68 -19z"/>
<path d="M858 1414 c-32 -20 -58 -40 -58 -45 0 -5 2 -9 4 -9 12 0 126 74 126
81 0 15 -12 10 -72 -27z"/>
<path d="M2706 1395 c-9 -13 -16 -29 -16 -35 0 -17 17 -11 33 13 l15 22 46
-32 c46 -32 66 -40 66 -25 -1 8 -107 82 -119 82 -5 0 -16 -11 -25 -25z"/>
<path d="M910 1356 c-48 -30 -55 -32 -65 -19 -23 30 -26 -5 -4 -41 24 -41 44
-48 35 -13 -5 20 2 28 44 53 27 16 50 35 50 42 0 16 4 17 -60 -22z"/>
<path d="M2670 1328 c0 -7 13 -22 28 -32 15 -11 42 -31 60 -44 23 -18 32 -21
32 -10 0 8 -21 30 -47 49 -67 49 -73 52 -73 37z"/>
<path d="M965 1294 c-12 -13 -15 -26 -10 -55 6 -32 4 -39 -9 -39 -10 0 -16 9
-16 25 0 28 -15 33 -24 9 -8 -20 19 -64 38 -64 26 0 46 35 43 76 -1 29 2 39
13 39 10 0 15 -10 15 -27 -1 -32 10 -36 24 -10 7 14 6 25 -5 40 -18 26 -46 28
-69 6z"/>
<path d="M2610 1260 c-12 -22 -5 -60 10 -60 5 0 10 12 12 27 4 37 31 41 63 8
31 -30 29 -59 -3 -63 -26 -4 -29 -17 -6 -26 21 -8 20 -8 38 10 25 24 19 60
-15 93 -37 37 -82 42 -99 11z"/>
<path d="M1021 1180 c-54 -61 -55 -86 -1 -27 33 36 37 29 15 -34 -24 -67 -4
-67 55 0 28 34 46 61 39 61 -7 0 -25 -15 -40 -32 -32 -38 -36 -29 -14 33 9 23
12 46 7 51 -5 5 -32 -19 -61 -52z"/>
<path d="M2526 1169 c-38 -55 65 -154 112 -107 22 22 14 68 -17 99 -35 34 -74
38 -95 8z m79 -24 c28 -27 33 -63 10 -71 -21 -9 -64 22 -71 51 -12 49 22 60
61 20z"/>
<path d="M1105 1095 c-26 -31 -44 -59 -40 -63 7 -7 104 96 105 111 0 19 -22 2
-65 -48z"/>
<path d="M1492 958 c-19 -19 -15 -51 6 -46 10 3 24 -2 32 -10 9 -10 15 -12 18
-4 4 12 72 -36 72 -50 0 -13 -21 -9 -36 7 -19 19 -34 19 -34 1 0 -34 68 -56
94 -31 24 24 20 44 -14 63 -32 18 -39 32 -15 32 8 0 15 -4 15 -10 0 -5 7 -10
15 -10 20 0 19 26 -1 34 -24 9 -62 7 -69 -4 -11 -18 -26 -10 -20 10 7 23 -13
28 -21 5 -9 -23 -26 -18 -19 5 7 22 -5 26 -23 8z"/>
<path d="M2113 963 c-27 -5 -28 -11 -10 -47 15 -27 27 -25 27 6 0 10 5 18 10
18 6 0 10 -9 10 -21 0 -11 5 -17 10 -14 6 3 10 19 10 36 0 30 -5 32 -57 22z"/>
<path d="M2016 932 c-10 -16 -18 -132 -10 -132 5 0 17 9 27 20 18 21 47 27 47
10 0 -12 27 -13 34 -2 9 14 -57 112 -76 112 -9 0 -19 -4 -22 -8z m44 -64 c0
-5 -4 -8 -10 -8 -5 0 -10 10 -10 23 0 18 2 19 10 7 5 -8 10 -18 10 -22z"/>
<path d="M1687 924 c-4 -4 -7 -29 -7 -55 0 -38 5 -51 22 -63 48 -34 85 -7 90
64 2 36 0 45 -14 48 -15 3 -18 -4 -18 -35 0 -47 -13 -68 -35 -59 -13 5 -16 16
-13 53 3 43 -8 64 -25 47z"/>
<path d="M1913 923 c-30 -3 -43 -9 -43 -19 0 -12 7 -14 31 -9 28 6 30 5 21
-12 -6 -10 -20 -27 -31 -37 -12 -11 -21 -28 -21 -38 0 -18 5 -19 53 -13 59 8
70 13 62 25 -3 5 -19 7 -35 3 -38 -7 -37 0 1 48 26 34 32 63 11 57 -4 -1 -26
-3 -49 -5z"/>
<path d="M1820 855 c0 -51 3 -65 15 -65 12 0 15 14 15 65 0 51 -3 65 -15 65
-12 0 -15 -14 -15 -65z"/>
</g>
</svg>
